<?xml version="1.0" encoding="UTF-8"?>
<svg id="Capa_2" data-name="Capa 2" xmlns="http://www.w3.org/2000/svg" viewBox="0 0 511.37 80.63">
  <g id="Page_3" data-name="Page 3">
    <g>
      <g>
        <g>
          <path d="M25.68,2.9h18.17c.48,0,.86.39.86.86v16.36h12.08c.48,0,.86.39.86.86v14.51c0,.48-.39.86-.86.86h-11.85v18.27c0,1.19.21,2.38.7,3.47s1.26,2.19,2.67,2.75c3.63,1.46,7.51,1.54,9.26,1.42.5-.03.91.36.91.86v15.89c0,.48-.39.86-.86.86h-12.13c-11.42,0-20.68-9.26-20.68-20.68V3.76c0-.48.39-.86.86-.86Z"/>
          <g>
            <path d="M19.12,0H.86c-.48,0-.86.4-.86.88v14.3c0,.49.39.88.86.88h18.26c.48,0,.86-.4.86-.88V.88c0-.49-.39-.88-.86-.88Z"/>
            <rect y="20.13" width="19.99" height="59.77"/>
          </g>
          <path d="M160.81,21.06v3.68s-.04.02-.07.03c-4.88-4.4-10.17-5.96-16.98-5.96-15.7,0-28.59,13.91-28.59,31.27s12.73,30.56,28.43,30.56c7.17,0,12.15-2.55,17.13-7.39.03-.03.08,0,.08.03v5.82c0,.47.39.85.88.85h17.54c.49,0,.88-.38.88-.85V21.06c0-.47-.39-.85-.88-.85h-17.54c-.49,0-.88.38-.88.85ZM146.76,63.84c-6.31,0-11.43-6.16-11.43-13.77s5.12-13.77,11.43-13.77,11.43,6.16,11.43,13.77-5.12,13.77-11.43,13.77Z"/>
          <path d="M75.27,77.85c-4.28-1.83-7.66-4.34-10.15-7.53-2.17-2.78-3.5-5.88-3.99-9.29-.12-.8.51-1.52,1.32-1.52h17.95c.59,0,1.12.39,1.28.96.41,1.48,1.24,2.67,2.5,3.56,1.51,1.08,3.38,1.61,5.61,1.61,1.73,0,3.09-.36,4.1-1.08,1.01-.72,1.51-1.65,1.51-2.8,0-1.51-.83-2.62-2.48-3.33-1.66-.72-4.39-1.51-8.2-2.37-4.32-.86-7.92-1.83-10.79-2.9-2.88-1.08-5.38-2.83-7.5-5.27-2.12-2.44-3.18-5.74-3.18-9.9,0-3.58.97-6.83,2.91-9.73,1.94-2.9,4.8-5.22,8.58-6.94,3.78-1.72,8.33-2.58,13.66-2.58,7.92,0,14.14,1.94,18.67,5.81,4.16,3.55,6.71,8.13,7.66,13.73.14.81-.5,1.54-1.32,1.54h-16.52c-.59,0-1.11-.39-1.28-.95-.44-1.48-1.21-2.65-2.31-3.51-1.33-1.04-3.11-1.56-5.34-1.56-1.73,0-3.04.32-3.94.97-.9.65-1.35,1.54-1.35,2.69,0,1.44.83,2.53,2.48,3.28,1.65.75,4.32,1.52,7.99,2.31,4.39.93,8.04,1.97,10.96,3.12,2.91,1.15,5.47,2.99,7.66,5.54,2.19,2.55,3.29,6.01,3.29,10.38,0,3.51-1.03,6.67-3.08,9.47s-4.97,5-8.74,6.61-8.22,2.42-13.33,2.42c-5.47,0-10.35-.91-14.63-2.74Z"/>
        </g>
        <g>
          <path d="M209.6,80.63c-9.37,0-17.1-3.63-22.14-9.44-.57-.66-.55-1.66,0-2.33l3.54-4.31c.67-.81,1.86-.85,2.64-.14,4.84,4.43,11.08,7.12,16.08,7.12,5.49,0,11.36-2,11.36-8.49s-9.36-8.49-13.36-9.86c-8.74-2.99-17.48-6.12-17.48-17.35s9.49-16.98,19.97-16.98c9.55,0,15.38,3.11,19.17,6.68.63.6.7,1.58.21,2.3l-2.98,4.4c-.59.87-1.8,1.07-2.6.4-3.52-2.94-8.53-5.04-13.55-5.04-5.74,0-9.49,2.5-9.49,7.37s5.74,6.99,11.61,8.86c3.25,1.13,5.49,1.87,7.99,2.87,6.62,2.75,11.61,7.49,11.61,15.23,0,12.73-11.11,18.72-22.6,18.72Z"/>
          <path d="M238.79,5.41h8.08c1,0,1.81.81,1.81,1.81v12.7s12.61.02,12.61.02c.99,0,1.8.8,1.8,1.8l.03,6.49c0,1-.81,1.82-1.81,1.81l-12.75-.02-.04,31.85c0,1.32.24,2.65.78,3.85.53,1.18,1.4,2.43,2.96,3.06,3.5,1.4,7,1.66,9.06,1.62,1-.02,1.8.8,1.8,1.8v5.9c0,1-.81,1.81-1.81,1.81h-5.95c-10.15,0-18.38-8.23-18.38-18.38V7.21c0-1,.8-1.81,1.8-1.81Z"/>
          <path d="M311.72,20.13c-1,0-1.81.81-1.81,1.81v34.24c-.19.84-.49,1.64-.96,2.41-.7,1.15-1.47,2.26-2.32,3.31-3.04,3.74-7.33,6.77-12.32,6.77-.4,0-.79-.04-1.19-.07-.33,0-.69-.07-1.05-.11-2.38-.43-4.62-1.52-6.68-3.18-.36-.29-.76-.61-1.12-1.01-.75-.83-1.49-1.55-1.96-2.59-1.37-3-1.29-6.09-1.29-9.29v-30.52c0-1-.81-1.81-1.81-1.81h-7.87c-1,0-1.81.81-1.81,1.81v36.06c0,5.91,2.03,11.78,6.2,15.95,1.23,1.24,2.55,2.32,3.95,3.24,3.32,2.24,7.08,3.47,11.02,3.47,7.66,0,14.51-3.81,19.2-11.23v8.71c0,1,.81,1.81,1.81,1.81h7.86c1,0,1.81-.81,1.81-1.81V21.93c0-1-.81-1.81-1.81-1.81h-7.86Z"/>
          <path d="M372.04,3.54v22.64c-4.77-5.64-11.24-7.44-18.4-7.44-14.58,0-26.4,11.68-26.4,29.52s11.82,32.36,26.4,32.36c7.16,0,13.62-2.63,18.4-8.26v5.74c0,1,.82,1.81,1.84,1.81h9.14c1.01,0,1.84-.81,1.84-1.81V3.54c0-1-.82-1.81-1.84-1.81h-9.14c-1.01,0-1.84.81-1.84,1.81ZM355.52,69.46c-8.89,0-16.12-9.28-16.12-20.7s7.23-19.55,16.12-19.55,16.12,8.14,16.12,19.55-7.23,20.7-16.12,20.7Z"/>
          <g>
            <rect x="391.97" y="20.13" width="13.4" height="59.78" rx="1.81" ry="1.81"/>
            <rect x="391.97" y="1.73" width="13.4" height="12.27" rx="1.81" ry="1.81"/>
          </g>
          <path d="M441.58,18.74c-17.16,0-31.07,13.85-31.07,30.94s13.91,30.94,31.07,30.94,31.07-13.85,31.07-30.94-13.91-30.94-31.07-30.94ZM441.58,69.02c-10.72,0-19.41-8.66-19.41-19.33s8.69-19.33,19.41-19.33,19.41,8.66,19.41,19.33-8.69,19.33-19.41,19.33Z"/>
        </g>
      </g>
      <path d="M479.83,0h10.91v3.38h-3.3v11.12h-4.32l.04-11.12h-3.34V0ZM511.37,0v14.49h-3.99l-.08-9.1-3.75,9.1h-2.92l-3.75-9.43v9.43h-3.87V0h5.72l3.5,9.31,3.79-9.31h5.35Z"/>
    </g>
  </g>
</svg>